# xmcd
#
# Track frame offsets:
#	150
#	19283
#	32477
#	46636
#	56468
#	65417
#	77370
#	89743
#	100809
#	126567
#	138535
#	147773
#	166688
#	177752
#	188023
#	196417
#	205939
#	216122
#
# Disc length: 3019 seconds
#
# Revision: 0
# Processed by: cddbd v1.5.1PL0 Copyright (c) Steve Scherf et al.
# Submitted via: audiograbber 1.82.02
#
DISCID=f60bc912
DTITLE=Hank Snow - The Hank Snow Collection CD 13
DYEAR=1900
DGENRE=Country
TTITLE0=Old Doc Brown
TTITLE1=Pioneer Mother Of Mine
TTITLE2=Lazy Bones
TTITLE3=What Do I Know Today
TTITLE4=Trouble
TTITLE5=The First Nighters
TTITLE6=How To Play The Guitar
TTITLE7=Little Britches
TTITLE8=What Is A Father
TTITLE9=Horse Prayer
TTITLE10=Pray
TTITLE11=A Blind Boy's Prayer
TTITLE12=I've Forgotton You
TTITLE13=Let Me Go Lover
TTITLE14=Darktown Boogie
TTITLE15=Silver Bells
TTITLE16=Its You I Love
TTITLE17=Cryin, Paying, Waiting
EXTD=
EXTT0=
EXTT1=
EXTT2=
EXTT3=
EXTT4=
EXTT5=
EXTT6=
EXTT7=
EXTT8=
EXTT9=
EXTT10=
EXTT11=
EXTT12=
EXTT13=
EXTT14=
EXTT15=
EXTT16=
EXTT17=
PLAYORDER=
